<svg xmlns="http://www.w3.org/2000/svg" width="118" height="8" viewBox="0 0 118 8" fill="none"><g clip-path="url(#clip0_1_1634)"><path d="M31.576 2.32296C28.9455 2.47734 26.3153 2.55773 23.6848 2.61277C22.3697 2.64717 21.0547 2.65578 19.7392 2.67513L15.7936 2.69576L11.848 2.67639L9.8751 2.6502L8.88858 2.63639L7.90246 2.6145C5.27194 2.55989 2.6415 2.47861 0.0113831 2.3238C2.64191 2.16857 5.27194 2.08771 7.90246 2.0331L8.88858 2.01116L9.8751 1.99741L11.848 1.97116L15.7936 1.95184L19.7392 1.97247C21.0547 1.99268 22.3697 2.00043 23.6848 2.03483C26.3153 2.08816 28.9459 2.16859 31.576 2.32296Z" fill="#FF952A" stroke="#761C14"></path><path d="M85.3213 2.35866C85.3112 2.36726 85.2991 2.37284 85.2862 2.37488C85.2734 2.37692 85.2603 2.37534 85.2483 2.37026C85.1901 2.34504 85.1351 2.31257 85.0842 2.27352C84.9681 2.19133 84.8462 2.11873 84.7196 2.05636C84.49 1.94647 84.2445 1.87842 83.9936 1.85511C83.9126 1.8478 83.8288 1.84267 83.7384 1.84267C83.6481 1.84267 83.5528 1.84782 83.4547 1.85857C83.2332 1.88289 83.0148 1.93323 82.8037 2.00865C82.7746 2.01854 82.7458 2.02969 82.7166 2.0413C82.6874 2.05291 82.6583 2.06498 82.6288 2.07788C82.5992 2.09078 82.5691 2.10496 82.5387 2.12087L82.4464 2.16387C82.3848 2.19612 82.3224 2.22923 82.2588 2.26449L82.1636 2.32082L82.115 2.34963L82.0668 2.3806L81.9687 2.44339L81.8699 2.51089C81.8031 2.55389 81.7366 2.60637 81.6674 2.65582C81.5312 2.75902 81.391 2.87081 81.2464 2.99035C80.9571 3.23116 80.6505 3.50895 80.3037 3.80351C80.1307 3.95057 79.9435 4.10194 79.7426 4.24901C79.5327 4.40365 79.3143 4.54495 79.0887 4.67215C78.8416 4.81254 78.5824 4.92774 78.3148 5.01618C78.0203 5.11307 77.7144 5.16505 77.4061 5.17056C77.0741 5.17353 76.7441 5.11635 76.4302 5.00153C76.2688 4.94374 76.1115 4.87392 75.9594 4.79256L75.846 4.72889L75.7893 4.69666L75.7342 4.66228L75.6232 4.59262L75.5146 4.51861C75.2283 4.31641 74.9541 4.0954 74.6938 3.85684C74.4316 3.62205 74.1777 3.37908 73.9188 3.143C73.7892 3.02604 73.6591 2.90867 73.5262 2.79902C73.4602 2.74226 73.3925 2.68937 73.3237 2.63519C73.29 2.60853 73.2555 2.58316 73.2211 2.55693C73.1867 2.53069 73.1527 2.50489 73.1174 2.48081L73.0129 2.40685L72.9064 2.33761C72.8885 2.326 72.8711 2.31393 72.8529 2.30318L72.7986 2.27137C72.7621 2.2503 72.7264 2.22838 72.6896 2.20817C72.5439 2.12819 72.3929 2.05948 72.2378 2.00261C72.1973 1.98971 72.1601 1.97813 72.1208 1.96565C72.1014 1.95963 72.0803 1.95276 72.0621 1.9476L72.0029 1.93337C71.9624 1.92434 71.9218 1.91318 71.8838 1.90587C71.8457 1.89856 71.8028 1.89039 71.7623 1.88566C71.5992 1.86326 71.4345 1.85722 71.2704 1.8676C70.9303 1.8923 70.5958 1.97188 70.2783 2.10366C69.9466 2.23972 69.628 2.40906 69.3267 2.60937C69.0167 2.81424 68.7177 3.03732 68.4312 3.27759C67.8462 3.76351 67.2685 4.29373 66.6211 4.73965C66.297 4.96825 65.9523 5.16217 65.5921 5.31848C65.4104 5.39592 65.2238 5.4601 65.0338 5.51065C64.8446 5.56287 64.6519 5.59901 64.4574 5.61863C64.075 5.65657 63.6897 5.64207 63.3108 5.57559C62.9439 5.51124 62.5835 5.41048 62.2344 5.2746C61.8962 5.14416 61.5662 4.99104 61.2463 4.81618C60.9307 4.64418 60.6289 4.46146 60.338 4.27053C59.7578 3.88825 59.2166 3.49436 58.6838 3.14132C58.4181 2.96372 58.1543 2.79731 57.8918 2.64637C57.7609 2.56897 57.6292 2.49974 57.4992 2.43136L57.3027 2.33373C57.2378 2.30019 57.1722 2.27136 57.107 2.24255L57.0094 2.19956L56.9607 2.17762L56.9118 2.1583L56.7173 2.08129C56.6529 2.05592 56.5873 2.03616 56.5229 2.01337L56.4264 1.98025C56.3944 1.9695 56.3616 1.96131 56.3296 1.95185C56.0824 1.8752 55.829 1.82325 55.5727 1.79663C55.334 1.77201 55.0938 1.7684 54.8545 1.78587C54.6341 1.80135 54.4153 1.83573 54.2002 1.88865C53.8303 1.97681 53.4763 2.12785 53.1517 2.33588C53.0203 2.42243 52.8953 2.51977 52.7782 2.627L52.7004 2.70096C52.6757 2.7259 52.6526 2.75125 52.6295 2.77577L52.5955 2.81188L52.5643 2.84889L52.5043 2.92028C52.4678 2.96844 52.4326 3.01399 52.4018 3.05828C52.371 3.10257 52.3431 3.1443 52.3208 3.1873L52.2555 3.29995L52.207 3.39627L52.1867 3.43669L52.1709 3.47328L52.1461 3.5296L52.1263 3.57559L52.1445 3.52918L52.1672 3.47155L52.1818 3.43454L52.2008 3.39155L52.2462 3.29307L52.3082 3.17743C52.3309 3.13443 52.3588 3.09141 52.3868 3.04841C52.4147 3.00541 52.45 2.95552 52.4853 2.90521L52.5436 2.83083L52.574 2.79214L52.6072 2.7543C52.6299 2.72892 52.6522 2.70226 52.6765 2.67603L52.7526 2.59776C52.8681 2.48414 52.9918 2.38031 53.1226 2.28727C53.447 2.06225 53.8037 1.8945 54.1787 1.79059C54.3977 1.72844 54.6211 1.68533 54.8467 1.66162C55.0928 1.63482 55.3405 1.62977 55.5874 1.64656C55.8535 1.66481 56.1175 1.70946 56.3758 1.77989C56.4094 1.78849 56.443 1.79577 56.4762 1.80566L56.5763 1.83621C56.6431 1.85728 56.7112 1.87576 56.7788 1.89941L56.9814 1.97164L57.0324 1.99017L57.0831 2.0108L57.1844 2.05379C57.2524 2.08131 57.3209 2.10881 57.3869 2.13977L57.5895 2.2331C57.7244 2.30018 57.8618 2.36642 57.9971 2.44081C58.2693 2.58659 58.5424 2.74653 58.8159 2.91681C59.3644 3.25609 59.9178 3.63365 60.4988 3.99185C60.7889 4.16988 61.0883 4.34063 61.3978 4.4963C61.7087 4.65464 62.0287 4.79205 62.3559 4.90778C62.6854 5.02557 63.0245 5.11055 63.3688 5.16153C63.7138 5.21239 64.0635 5.21615 64.4095 5.17271C64.5824 5.15066 64.7534 5.11399 64.9208 5.06305C65.0901 5.01335 65.256 4.95155 65.4175 4.87813C65.7463 4.72499 66.06 4.53772 66.3541 4.31908C66.9558 3.88348 67.512 3.35286 68.1011 2.84243C68.3985 2.58255 68.7097 2.3408 69.0329 2.1183C69.3609 1.89194 69.7088 1.69965 70.0716 1.5442C70.4416 1.38409 70.8325 1.28518 71.2308 1.25092C71.4321 1.23521 71.6343 1.23986 71.8348 1.26473C71.885 1.26989 71.9344 1.27977 71.9842 1.28751C72.0341 1.29525 72.0827 1.30857 72.1321 1.31932L72.2059 1.33607C72.2302 1.34209 72.2541 1.34986 72.278 1.35717C72.3258 1.37179 72.374 1.38554 72.4214 1.40016C72.6075 1.46546 72.7888 1.54526 72.9638 1.63884C73.0072 1.66163 73.0485 1.687 73.0906 1.71065L73.1538 1.74718C73.1745 1.75965 73.1944 1.77297 73.2151 1.78587L73.3366 1.86372L73.4545 1.94497C73.495 1.97163 73.5323 2.00005 73.57 2.02844C73.6076 2.05682 73.6461 2.08432 73.6834 2.11442C73.7567 2.17247 73.8313 2.22965 73.9018 2.28943C74.0456 2.40725 74.1817 2.52807 74.3166 2.64847C74.5844 2.88928 74.8393 3.13054 75.0921 3.35544C75.3335 3.57545 75.5873 3.77965 75.8521 3.96692C76.3036 4.31011 76.842 4.50104 77.3972 4.51478C77.6464 4.5108 77.8938 4.46967 78.1321 4.39263C78.363 4.31806 78.5868 4.22073 78.8006 4.10192C79.0058 3.98839 79.2047 3.86235 79.3962 3.7244C79.5838 3.59024 79.7608 3.45264 79.9289 3.31202C80.2688 3.03165 80.5832 2.75645 80.8899 2.5122C81.0427 2.38922 81.195 2.27567 81.3432 2.16817C81.419 2.11657 81.4915 2.06408 81.5669 2.01678L81.677 1.94587L81.7876 1.87962L81.8419 1.84739L81.897 1.81684L82.0056 1.75752C82.0781 1.72011 82.1503 1.68524 82.2208 1.6517L82.3273 1.6053C82.3625 1.59025 82.3966 1.57472 82.4326 1.56225C82.4687 1.54978 82.5035 1.53519 82.5387 1.52315C82.574 1.51111 82.6089 1.49908 82.6433 1.48876C82.8947 1.41123 83.1539 1.36573 83.4155 1.35328C83.5276 1.34849 83.6398 1.34993 83.7518 1.35759C83.8579 1.36533 83.958 1.37907 84.0516 1.39627C84.3501 1.44813 84.6353 1.5653 84.8889 1.74031C85.0275 1.83528 85.1492 1.95534 85.2487 2.09505C85.2934 2.15229 85.3248 2.21995 85.3403 2.29247C85.3427 2.30432 85.3423 2.31662 85.339 2.32822C85.3356 2.33982 85.3295 2.35029 85.3213 2.35866Z" fill="#FF952A" stroke="#761C14"></path><path d="M68.7489 6.06882C68.723 6.10806 68.6848 6.13623 68.6412 6.14835C68.628 6.15316 68.6144 6.1569 68.6006 6.15953L68.5775 6.16557C68.569 6.16815 68.5618 6.16811 68.5528 6.17155C68.5093 6.1814 68.4669 6.19584 68.426 6.21459C68.3984 6.2284 68.3719 6.24481 68.347 6.26362C68.3188 6.28503 68.2935 6.31031 68.2716 6.33884C68.267 6.34672 68.262 6.35432 68.2566 6.36162C68.2529 6.36977 68.2487 6.37769 68.244 6.3853C68.2413 6.39354 68.2381 6.4016 68.2344 6.40939C68.2319 6.41971 68.2279 6.42957 68.2251 6.43989C68.213 6.48912 68.2094 6.54028 68.2145 6.59086C68.2179 6.62206 68.2241 6.65285 68.2328 6.68287C68.2364 6.69879 68.2437 6.71467 68.2486 6.73101C68.2535 6.74735 68.2615 6.76372 68.2705 6.7792C68.2794 6.79468 68.2879 6.81057 68.2968 6.82691C68.3057 6.84325 68.3171 6.85743 68.3288 6.8699C68.3343 6.87737 68.3402 6.88444 68.3466 6.89101C68.3535 6.89746 68.3579 6.90477 68.366 6.91122L68.388 6.93226L68.4118 6.95247C68.4883 7.01246 68.575 7.05628 68.6671 7.0815C68.7815 7.11315 68.9002 7.12345 69.0179 7.112C69.1519 7.10017 69.2832 7.06504 69.4064 7.00796C69.5395 6.94613 69.6625 6.86238 69.771 6.75983C69.8843 6.65467 69.9787 6.52866 70.0497 6.38787C70.1213 6.24434 70.1664 6.08757 70.1823 5.92604C70.196 5.75697 70.1823 5.58664 70.1417 5.42249C70.1014 5.25647 70.0337 5.09938 69.9416 4.95851C69.9299 4.94131 69.9198 4.92283 69.9072 4.90649L69.8695 4.85746L69.8508 4.83295L69.8302 4.81017L69.7897 4.76455C69.7617 4.73488 69.7313 4.7091 69.7022 4.67857C69.673 4.64804 69.6398 4.62612 69.6061 4.60419C69.4739 4.51021 69.3291 4.43774 69.1767 4.38918C69.0277 4.34327 68.8745 4.31441 68.7197 4.30315C68.5737 4.29278 68.427 4.29508 68.2813 4.31002C68.0321 4.33804 67.7856 4.3887 67.5445 4.46141C67.3378 4.52161 67.1729 4.57794 67.0582 4.61621L66.8829 4.676L67.0481 4.58996C67.1555 4.53492 67.3111 4.45409 67.5112 4.36336C67.7492 4.25285 67.9961 4.16551 68.249 4.10236C68.4042 4.06523 68.562 4.04206 68.7209 4.03313C68.8971 4.02379 69.0737 4.03517 69.2476 4.06709C69.4383 4.1027 69.6228 4.16913 69.7945 4.26404C69.8399 4.28726 69.8824 4.31735 69.9266 4.3453C69.9708 4.37325 70.0125 4.40767 70.053 4.44293L70.1129 4.49711C70.1227 4.50614 70.1332 4.51515 70.1429 4.52461L70.1709 4.55427L70.2268 4.61406C70.2454 4.63427 70.2617 4.65704 70.2791 4.67768C70.5629 5.03453 70.7156 5.48832 70.709 5.95528C70.7036 6.19541 70.653 6.43199 70.5602 6.65106C70.4688 6.86509 70.3404 7.05895 70.1815 7.22255C70.0294 7.38195 69.8529 7.51282 69.6596 7.60957C69.4731 7.70228 69.2726 7.75902 69.0674 7.77723C68.8767 7.79498 68.6845 7.77604 68.5001 7.72133C68.3282 7.67113 68.1677 7.58422 68.0285 7.4659L67.98 7.42291C67.9646 7.40743 67.9495 7.39151 67.9346 7.37603C67.9196 7.36055 67.9054 7.34252 67.8912 7.32575C67.8771 7.30897 67.8636 7.29136 67.8507 7.27373C67.8261 7.23936 67.8032 7.20361 67.7822 7.16664C67.7626 7.13096 67.7447 7.09423 67.7287 7.05657C67.7121 7.02001 67.7 6.98257 67.6883 6.94602C67.677 6.90943 67.6676 6.87229 67.6599 6.83468C67.6449 6.76293 67.637 6.68969 67.6363 6.61621C67.6352 6.48026 67.6617 6.34566 67.7138 6.22147C67.7264 6.19266 67.7409 6.16556 67.7542 6.1389C67.7676 6.11224 67.7875 6.08599 67.8041 6.06105C67.8207 6.03611 67.8406 6.01589 67.8584 5.99439C67.8762 5.97289 67.8965 5.95655 67.9156 5.93848C68.0381 5.83005 68.1898 5.7655 68.349 5.75403C68.448 5.74598 68.5473 5.76601 68.6366 5.81208C68.6522 5.8201 68.6672 5.82962 68.6812 5.84048C68.6934 5.84908 68.7051 5.85853 68.716 5.86883C68.7326 5.88551 68.7473 5.90413 68.7599 5.92431C68.7739 5.94609 68.7804 5.97229 68.7785 5.99859C68.7765 6.02488 68.766 6.04971 68.7489 6.06882Z" fill="#FF952A" stroke="#761C14"></path><path d="M74.64 7.1765C74.6425 7.20183 74.6382 7.22741 74.6276 7.25025C74.617 7.2731 74.6004 7.29229 74.5799 7.30553C74.4713 7.36237 74.3481 7.38015 74.2291 7.35624C74.109 7.34226 73.9911 7.31192 73.8783 7.26595C73.7165 7.20106 73.5634 7.11435 73.4225 7.00795C73.0034 6.67324 72.653 6.25139 72.3926 5.76819C72.2261 5.47922 72.0685 5.16876 71.8947 4.86517C71.8084 4.71381 71.7177 4.56418 71.6205 4.42314C71.5953 4.38831 71.5718 4.35176 71.5459 4.31778L71.4685 4.21585L71.3875 4.11868C71.3608 4.08557 71.3312 4.05716 71.3029 4.02577C71.1893 3.90599 71.0636 3.79987 70.9281 3.7093C70.7916 3.62174 70.6456 3.55199 70.4934 3.50159C70.1881 3.40404 69.8689 3.36459 69.5507 3.38505C69.2586 3.4034 68.9692 3.45475 68.6873 3.53817C68.426 3.61257 68.1955 3.69768 68.0042 3.77208C67.813 3.84647 67.6603 3.91053 67.555 3.95396L67.3929 4.02147L67.544 3.92819C67.6417 3.86799 67.7839 3.7807 67.9646 3.67707C68.1788 3.55254 68.3988 3.43959 68.6237 3.33865C68.9097 3.2084 69.2087 3.11286 69.515 3.05393C69.8733 2.98485 70.2407 2.9869 70.5983 3.05997C70.7919 3.10122 70.9797 3.16825 71.1574 3.25949C71.3363 3.35467 71.5042 3.47187 71.6574 3.60867C71.6946 3.64307 71.7339 3.67617 71.7687 3.71229L71.8745 3.82068L71.9738 3.93333C72.0066 3.97074 72.0365 4.0099 72.0677 4.04861C72.1861 4.20017 72.2971 4.35804 72.4004 4.52161C72.5004 4.67943 72.5928 4.83548 72.6795 4.98685L72.9274 5.42075C73.1524 5.83294 73.4379 6.20429 73.7733 6.52072C73.9442 6.67501 74.1344 6.80341 74.3385 6.90218C74.4287 6.93916 74.5139 6.98843 74.5921 7.04879C74.6086 7.06487 74.6215 7.08473 74.6298 7.10685C74.6381 7.12896 74.6416 7.15277 74.64 7.1765Z" fill="#FF952A" stroke="#761C14"></path><path d="M76.1519 1.35626C76.1281 1.35612 76.1048 1.34854 76.0849 1.33447C76.0651 1.3204 76.0497 1.30048 76.0404 1.27715C76.0332 1.25848 76.0279 1.23901 76.0247 1.21909C76.021 1.19176 76.0198 1.16411 76.021 1.13652C76.0266 1.05146 76.0469 0.968244 76.081 0.891019C76.1348 0.768877 76.2103 0.658903 76.3034 0.567196C76.4383 0.433543 76.6 0.334017 76.7762 0.276075C76.9568 0.21511 77.1483 0.200385 77.3353 0.233084L77.3892 0.243845C77.407 0.248145 77.4252 0.253287 77.4439 0.258017C77.4803 0.267908 77.5139 0.282081 77.55 0.294552C77.6995 0.353822 77.8377 0.441266 77.958 0.552603C78.0903 0.675301 78.2012 0.82172 78.2857 0.98519C78.3779 1.1618 78.4391 1.3547 78.4664 1.55452C78.48 1.65965 78.484 1.76595 78.4782 1.87189L78.4729 1.95272C78.4691 1.97881 78.4654 2.00504 78.4619 2.03141C78.4554 2.0843 78.4425 2.13592 78.4316 2.18752C78.3805 2.39321 78.2963 2.58799 78.1828 2.76331C78.0708 2.9364 77.9349 3.09062 77.7797 3.22083C77.6265 3.34919 77.4568 3.45357 77.2757 3.53085C77.1014 3.60434 76.9194 3.65563 76.7337 3.68354C76.3904 3.73187 76.0417 3.71568 75.7037 3.63578C75.5518 3.6008 75.4022 3.55558 75.2557 3.50035C75.1222 3.44891 74.9914 3.38978 74.8639 3.32319C74.6538 3.21187 74.4544 3.07889 74.2688 2.92624C74.1468 2.82625 74.0315 2.71765 73.9233 2.60116C73.8828 2.56117 73.8576 2.52722 73.8381 2.50615L73.8089 2.47261L73.8426 2.50053C73.8653 2.51859 73.8969 2.54701 73.9407 2.57969C74.0628 2.67419 74.1903 2.76036 74.3227 2.83769C74.5196 2.95411 74.7264 3.05085 74.9402 3.12666C75.0668 3.17082 75.1955 3.208 75.3258 3.23804C75.4661 3.26923 75.608 3.29145 75.7508 3.30466C76.0527 3.3346 76.3572 3.31093 76.6518 3.23458C76.799 3.19446 76.9415 3.13675 77.0764 3.06256C77.1092 3.04278 77.1433 3.02517 77.1736 3.00367L77.2206 2.9727L77.266 2.93915C77.2968 2.91808 77.3243 2.89146 77.3539 2.86824C77.3834 2.84502 77.4098 2.81747 77.435 2.79081C77.5395 2.68621 77.6293 2.56632 77.7019 2.43476C77.77 2.31166 77.8187 2.17761 77.8461 2.03787C77.8707 1.91038 77.8729 1.77917 77.8526 1.65084C77.832 1.52916 77.7925 1.41191 77.7359 1.30382C77.6863 1.20714 77.6218 1.11995 77.5451 1.04582C77.4813 0.984387 77.4082 0.934786 77.3288 0.899155C77.3106 0.892275 77.2923 0.882857 77.2753 0.877266L77.2502 0.869078L77.2247 0.862621C77.191 0.855107 77.1569 0.850248 77.1226 0.848028C77.0574 0.844699 76.992 0.85031 76.9281 0.864773C76.8225 0.888702 76.7216 0.932404 76.6303 0.993799C76.5672 1.03635 76.5083 1.08574 76.4549 1.14125C76.4003 1.20697 76.3417 1.26865 76.2791 1.32576C76.2609 1.33972 76.2403 1.34959 76.2185 1.35484C76.1966 1.36009 76.174 1.36057 76.1519 1.35626Z" fill="#FF952A" stroke="#761C14"></path><path d="M32.68 2.35866C32.6901 2.3673 32.7021 2.37295 32.7149 2.37499C32.7278 2.37703 32.7409 2.37538 32.7529 2.37026C32.8111 2.34509 32.8662 2.31261 32.917 2.27352C33.0331 2.19136 33.155 2.11876 33.2816 2.05636C33.5112 1.94647 33.7567 1.87842 34.0076 1.85511C34.0886 1.8478 34.1725 1.84267 34.2629 1.84267C34.3532 1.84267 34.4484 1.84782 34.5464 1.85857C34.768 1.88291 34.9863 1.93324 35.1975 2.00865C35.2266 2.01854 35.2554 2.02969 35.2846 2.0413C35.3138 2.05291 35.343 2.06498 35.3725 2.07788C35.4021 2.09078 35.4321 2.10496 35.4624 2.12087L35.5548 2.16386C35.6164 2.19612 35.6787 2.22923 35.7424 2.26449L35.8376 2.32082L35.8862 2.34963L35.9344 2.3806L36.0325 2.44339L36.1314 2.51089C36.1982 2.55389 36.2647 2.60637 36.3339 2.65582C36.4701 2.75902 36.6106 2.87081 36.7548 2.99035C37.0445 3.23116 37.3512 3.50895 37.6976 3.80351C37.8706 3.95057 38.0578 4.10194 38.2587 4.24901C38.4686 4.40365 38.6869 4.54495 38.9126 4.67215C39.1597 4.81253 39.4188 4.92774 39.6864 5.01618C39.9808 5.11304 40.2868 5.16502 40.595 5.17056C40.9272 5.17354 41.2574 5.11636 41.5715 5.00153C41.7328 4.94373 41.8901 4.87391 42.0422 4.79256L42.1556 4.72889L42.2123 4.69666L42.2679 4.66228L42.3789 4.59262L42.4875 4.51861C42.7738 4.31641 43.0479 4.0954 43.3082 3.85684C43.5703 3.62205 43.8244 3.37908 44.0833 3.143C44.2129 3.02604 44.343 2.90867 44.4758 2.79902C44.5419 2.74226 44.6095 2.68937 44.6784 2.63519C44.7124 2.60853 44.7468 2.58316 44.7809 2.55693C44.8149 2.53069 44.8494 2.50489 44.8846 2.48081L44.9891 2.40685L45.0957 2.33761C45.1135 2.326 45.1309 2.31393 45.1491 2.30318L45.2034 2.27137C45.2399 2.2503 45.2755 2.22838 45.3124 2.20817C45.4581 2.12819 45.6091 2.05948 45.7641 2.00261C45.8046 1.98971 45.8419 1.97813 45.8812 1.96565C45.9007 1.95963 45.9218 1.95276 45.94 1.9476L45.9991 1.93337C46.0397 1.92434 46.0801 1.91318 46.1182 1.90587C46.1563 1.89856 46.1993 1.89039 46.2398 1.88566C46.4028 1.86326 46.5674 1.85722 46.7316 1.8676C47.0717 1.89228 47.4062 1.97187 47.7237 2.10366C48.0554 2.23972 48.3741 2.40906 48.6754 2.60937C48.9854 2.81424 49.2843 3.03732 49.5707 3.27759C50.1554 3.76351 50.7335 4.29373 51.3809 4.73965C51.705 4.96825 52.0497 5.16217 52.4099 5.31848C52.5917 5.39593 52.7782 5.46011 52.9682 5.51065C53.1573 5.56287 53.3502 5.59901 53.5447 5.61863C53.9271 5.65658 54.3123 5.64209 54.6912 5.57559C55.0582 5.51126 55.4188 5.41051 55.7681 5.2746C56.1063 5.14416 56.4363 4.99104 56.7562 4.81618C57.0718 4.64418 57.3736 4.46146 57.6645 4.27053C58.2446 3.88825 58.7859 3.49436 59.3186 3.14132C59.5844 2.96372 59.8482 2.79731 60.1107 2.64637C60.2412 2.56897 60.3736 2.49974 60.5033 2.43136L60.6997 2.33373C60.7645 2.30019 60.8302 2.27136 60.8955 2.24255L60.9931 2.19956L61.0416 2.17762L61.0907 2.1583L61.2852 2.08129C61.3496 2.05592 61.4152 2.03616 61.4796 2.01337L61.5761 1.98025C61.6081 1.9695 61.6409 1.96131 61.6729 1.95185C61.92 1.87521 62.1734 1.82325 62.4296 1.79663C62.6684 1.77201 62.9086 1.76841 63.1479 1.78587C63.3683 1.80134 63.5871 1.83572 63.8022 1.88865C64.1721 1.97681 64.5262 2.12785 64.8507 2.33588C64.9822 2.42246 65.107 2.5198 65.2242 2.627L65.3021 2.70096C65.3268 2.7259 65.3499 2.75125 65.373 2.77577L65.407 2.81188L65.4382 2.84889L65.4981 2.92028C65.5346 2.96844 65.5699 3.01399 65.6007 3.05828C65.6315 3.10257 65.6594 3.1443 65.6817 3.1873L65.7469 3.29995L65.7955 3.39627L65.8158 3.43669L65.8315 3.47328L65.8562 3.5296L65.8761 3.57559L65.8579 3.52918L65.8356 3.47155L65.821 3.43454L65.8019 3.39155L65.7562 3.29307L65.6946 3.17743C65.6723 3.13443 65.644 3.09141 65.616 3.04841C65.588 3.00541 65.5528 2.95552 65.5176 2.90521L65.4592 2.83083L65.4289 2.79214L65.3956 2.7543C65.3729 2.72892 65.3507 2.70226 65.3264 2.67603L65.2502 2.59776C65.1348 2.48414 65.0111 2.38031 64.8803 2.28727C64.556 2.06227 64.1994 1.89453 63.8246 1.79059C63.6055 1.72846 63.382 1.68534 63.1564 1.66162C62.9104 1.63482 62.6627 1.62977 62.4159 1.64656C62.1498 1.66481 61.8858 1.70946 61.6275 1.77989C61.5939 1.78849 61.5602 1.79577 61.527 1.80566L61.427 1.83621C61.3601 1.85728 61.2921 1.87576 61.2244 1.89941L61.0219 1.97164L60.9707 1.99017L60.9201 2.0108L60.8188 2.05379C60.7507 2.08131 60.6823 2.10881 60.6162 2.13977L60.4137 2.2331C60.2788 2.30018 60.1415 2.36642 60.0062 2.44081C59.7339 2.58659 59.4609 2.74653 59.1874 2.91681C58.6392 3.25609 58.0854 3.63365 57.5045 3.99185C57.2144 4.16987 56.915 4.34063 56.6055 4.4963C56.2945 4.65462 55.9745 4.79203 55.6473 4.90778C55.3179 5.02557 54.9788 5.11055 54.6345 5.16153C54.2894 5.21239 53.9396 5.21615 53.5937 5.17271C53.4208 5.15066 53.2498 5.11399 53.0824 5.06305C52.9131 5.01336 52.7473 4.95156 52.5858 4.87812C52.257 4.72501 51.9432 4.53774 51.6491 4.31908C51.0475 3.88348 50.4913 3.35286 49.9022 2.84243C49.6047 2.58255 49.2936 2.3408 48.9704 2.1183C48.6423 1.89196 48.2945 1.69968 47.9316 1.5442C47.5617 1.38407 47.1707 1.28516 46.7725 1.25092C46.5712 1.23521 46.369 1.23986 46.1685 1.26473C46.1182 1.26989 46.0689 1.27977 46.019 1.28751C45.9692 1.29525 45.9205 1.30857 45.8711 1.31932L45.7974 1.33607C45.7731 1.34209 45.7492 1.34986 45.7253 1.35717C45.6775 1.37179 45.6288 1.38554 45.5814 1.40016C45.3953 1.46544 45.214 1.54523 45.0389 1.63884C44.9956 1.66163 44.9543 1.687 44.9117 1.71065L44.8485 1.74718C44.8279 1.75965 44.8081 1.77297 44.7874 1.78587L44.6658 1.86372L44.5479 1.94497C44.5074 1.97163 44.4702 2.00005 44.4325 2.02844C44.3948 2.05682 44.3563 2.08432 44.3191 2.11442C44.2457 2.17247 44.1712 2.22965 44.1007 2.28943C43.9569 2.40725 43.8204 2.52807 43.6858 2.64847C43.4181 2.88928 43.1632 3.13054 42.9104 3.35543C42.669 3.57542 42.4152 3.77963 42.1504 3.96692C41.6989 4.31011 41.1604 4.50104 40.6052 4.51477C40.3561 4.51082 40.1087 4.46969 39.8703 4.39263C39.6394 4.31808 39.4156 4.22074 39.2018 4.10192C38.9966 3.98841 38.7977 3.86238 38.6063 3.7244C38.4187 3.59024 38.2417 3.45264 38.0735 3.31202C37.7336 3.03165 37.4192 2.75645 37.1125 2.5122C36.9602 2.38922 36.8075 2.27567 36.6592 2.16817C36.5835 2.11657 36.511 2.06408 36.4356 2.01678L36.3254 1.94587L36.2147 1.87962L36.1604 1.84739L36.1053 1.81684L35.9968 1.75752C35.9243 1.72011 35.8522 1.68524 35.7817 1.6517L35.6751 1.6053C35.6398 1.59025 35.6058 1.57472 35.5694 1.56225C35.5329 1.54978 35.4985 1.53519 35.4632 1.52315C35.428 1.51111 35.3931 1.49908 35.3587 1.48876C35.1073 1.41122 34.848 1.36572 34.5865 1.35328C34.4744 1.34849 34.3622 1.34993 34.2503 1.35759C34.1442 1.36533 34.0441 1.37907 33.9505 1.39627C33.6519 1.44807 33.3667 1.56524 33.113 1.74031C32.9745 1.83532 32.8528 1.95537 32.7533 2.09505C32.7086 2.15229 32.6772 2.21995 32.6617 2.29247C32.6592 2.30424 32.6595 2.31646 32.6627 2.32806C32.6659 2.33966 32.6719 2.35021 32.68 2.35866Z" fill="#FF952A" stroke="#761C14"></path><path d="M49.2507 6.06882C49.2766 6.10806 49.3148 6.13623 49.3585 6.14835C49.3717 6.15315 49.3852 6.15689 49.399 6.15953L49.4221 6.16557C49.4302 6.16815 49.4379 6.16811 49.4472 6.17155C49.4907 6.18139 49.5332 6.19584 49.574 6.21459C49.6017 6.22838 49.6281 6.24479 49.653 6.26362C49.6811 6.28506 49.7065 6.31033 49.7283 6.33884C49.7329 6.34672 49.738 6.35432 49.7434 6.36162C49.7471 6.36977 49.7513 6.37769 49.7559 6.3853C49.7586 6.39356 49.7619 6.40162 49.7656 6.40939C49.7681 6.41971 49.7721 6.42957 49.7749 6.43989C49.787 6.48912 49.7906 6.54028 49.7855 6.59086C49.7821 6.62206 49.7759 6.65285 49.7672 6.68287C49.7636 6.69879 49.7563 6.71467 49.7515 6.73101C49.7466 6.74735 49.7384 6.76372 49.7295 6.7792C49.7206 6.79468 49.7121 6.81057 49.7032 6.82691C49.6943 6.84325 49.683 6.85743 49.6709 6.8699C49.6655 6.87744 49.6595 6.88452 49.653 6.89101C49.647 6.89809 49.6407 6.90483 49.634 6.91122L49.6121 6.93226L49.5882 6.95247C49.5117 7.01248 49.425 7.0563 49.3329 7.0815C49.2185 7.11315 49.0998 7.12345 48.9821 7.112C48.8481 7.10017 48.7168 7.06504 48.5936 7.00796C48.4605 6.9461 48.3375 6.86236 48.229 6.75983C48.1157 6.65464 48.0213 6.52864 47.9502 6.38787C47.8786 6.24434 47.8336 6.08757 47.8177 5.92604C47.804 5.75697 47.8177 5.58664 47.8583 5.42249C47.8986 5.25647 47.9663 5.09938 48.0584 4.95851C48.0701 4.94131 48.0803 4.92283 48.0929 4.90649L48.1306 4.85746L48.1492 4.83295L48.1694 4.81017L48.2099 4.76455C48.2374 4.73488 48.2683 4.7091 48.297 4.67857C48.3258 4.64804 48.3594 4.62612 48.3931 4.60419C48.5253 4.5102 48.6701 4.43773 48.8225 4.38918C48.9715 4.34327 49.1247 4.31441 49.2795 4.30315C49.4255 4.29278 49.5722 4.29508 49.7179 4.31002C49.9671 4.33805 50.2136 4.38871 50.4547 4.46141C50.6613 4.52161 50.8263 4.57794 50.941 4.61621L51.1163 4.676L50.9511 4.58996C50.8437 4.53492 50.6881 4.45409 50.488 4.36336C50.25 4.25288 50.003 4.16555 49.7502 4.10236C49.595 4.06524 49.4372 4.04208 49.2783 4.03313C49.1021 4.02379 48.9254 4.03517 48.7516 4.06709C48.561 4.10275 48.3767 4.16917 48.205 4.26404C48.1597 4.28726 48.1172 4.31735 48.073 4.3453C48.0288 4.37325 47.9871 4.40767 47.9466 4.44293L47.8866 4.49711C47.8769 4.50614 47.8664 4.51515 47.8567 4.52461L47.8287 4.55427L47.7728 4.61406C47.7542 4.63427 47.7379 4.65704 47.7205 4.67768C47.4366 5.03453 47.2841 5.48832 47.2907 5.95528C47.2961 6.19541 47.3466 6.43199 47.4394 6.65106C47.5308 6.86507 47.6593 7.05892 47.8182 7.22255C47.9703 7.38193 48.1467 7.51279 48.34 7.60957C48.5265 7.70227 48.7271 7.75901 48.9323 7.77723C49.123 7.79498 49.3151 7.77604 49.4995 7.72133C49.6714 7.67111 49.8319 7.5842 49.9711 7.4659L50.0196 7.42291C50.035 7.40743 50.05 7.39151 50.065 7.37603C50.08 7.36055 50.0942 7.34252 50.1083 7.32575C50.1227 7.30915 50.1363 7.2918 50.1489 7.27373C50.1975 7.20678 50.2383 7.13387 50.2705 7.05657C50.2871 7.02001 50.2988 6.98257 50.3109 6.94602C50.3231 6.90947 50.3324 6.87209 50.3393 6.83468C50.3542 6.76292 50.3621 6.68969 50.3628 6.61621C50.3639 6.48027 50.3375 6.34568 50.2854 6.22147C50.2728 6.19266 50.2583 6.16556 50.2449 6.1389C50.2316 6.11224 50.2117 6.08599 50.1951 6.06105C50.1785 6.03611 50.1586 6.01589 50.1408 5.99439C50.123 5.97289 50.1027 5.95655 50.0836 5.93848C49.961 5.83007 49.8094 5.76553 49.6502 5.75403C49.551 5.74594 49.4515 5.76598 49.3621 5.81208C49.3465 5.82015 49.3316 5.82967 49.3176 5.84048C49.3054 5.8491 49.2938 5.85855 49.2828 5.86883C49.2663 5.88554 49.2515 5.90416 49.2389 5.92431C49.225 5.94618 49.2186 5.97245 49.2207 5.99875C49.2229 6.02505 49.2335 6.04981 49.2507 6.06882Z" fill="#FF952A" stroke="#761C14"></path><path d="M43.3609 7.17651C43.3584 7.20183 43.3627 7.22743 43.3733 7.25026C43.3839 7.2731 43.4004 7.29225 43.4209 7.30554C43.5295 7.36238 43.6527 7.38015 43.7717 7.35624C43.892 7.34228 44.01 7.31195 44.1229 7.26596C44.2846 7.20105 44.4378 7.11434 44.5787 7.00796C44.9978 6.67324 45.3482 6.2514 45.6085 5.7682C45.7751 5.47923 45.9327 5.16877 46.1065 4.86518C46.1928 4.71381 46.2835 4.56419 46.3807 4.42314C46.4059 4.38831 46.4294 4.35176 46.4553 4.31779L46.5327 4.21585L46.6137 4.11869C46.6404 4.08558 46.6701 4.05717 46.6984 4.02578C46.812 3.906 46.9376 3.79988 47.0731 3.7093C47.2097 3.62172 47.3558 3.55197 47.5082 3.50159C47.8135 3.40403 48.1327 3.36458 48.451 3.38506C48.7431 3.40344 49.0324 3.45479 49.3143 3.53818C49.5756 3.61257 49.8057 3.69769 49.9973 3.77208C50.189 3.84648 50.3414 3.91054 50.4467 3.95397L50.6087 4.02147L50.4576 3.9282C50.3599 3.86799 50.2178 3.78071 50.0371 3.67707C49.8229 3.55259 49.6029 3.43964 49.378 3.33866C49.0919 3.2084 48.7929 3.11285 48.4866 3.05394C48.1283 2.98484 47.761 2.9869 47.4034 3.05998C47.2098 3.10127 47.0219 3.1683 46.8442 3.2595C46.6653 3.35471 46.4975 3.47191 46.3443 3.60868C46.3075 3.64308 46.2677 3.67617 46.2329 3.7123L46.1271 3.82069L46.0279 3.93334C45.9947 3.97075 45.9651 4.00991 45.9339 4.04861C45.8155 4.20018 45.7045 4.35804 45.6013 4.52162C45.5013 4.67943 45.4088 4.83549 45.3221 4.98686L45.0742 5.42076C44.8493 5.83289 44.5636 6.20422 44.2283 6.52073C44.0574 6.67499 43.8672 6.80339 43.6631 6.90219C43.5729 6.93917 43.4877 6.98843 43.4095 7.0488C43.3929 7.06482 43.3798 7.08463 43.3714 7.10675C43.363 7.12886 43.3594 7.15271 43.3609 7.17651Z" fill="#FF952A" stroke="#761C14"></path><path d="M41.8485 1.35627C41.8723 1.35613 41.8956 1.34855 41.9154 1.33448C41.9353 1.32042 41.9507 1.30049 41.96 1.27716C41.9672 1.25849 41.9726 1.23902 41.9758 1.21911C41.9796 1.19178 41.9808 1.16413 41.9797 1.13654C41.9741 1.05148 41.9538 0.968279 41.9198 0.89103C41.8661 0.768941 41.7908 0.658974 41.6978 0.567207C41.563 0.433542 41.4013 0.334014 41.2251 0.276086C41.0445 0.215105 40.8529 0.20038 40.6659 0.233095L40.612 0.243856C40.5938 0.248156 40.576 0.253298 40.5573 0.258028C40.5209 0.267919 40.4872 0.282093 40.4512 0.294563C40.3017 0.353799 40.1635 0.441246 40.0433 0.552614C39.9109 0.67532 39.7998 0.821732 39.7151 0.985201C39.623 1.16183 39.5617 1.35472 39.5344 1.55453C39.5207 1.65965 39.5167 1.76596 39.5226 1.8719C39.5226 1.89899 39.5263 1.92564 39.5279 1.95274L39.5389 2.03142C39.5453 2.08431 39.5579 2.13593 39.5692 2.18753C39.6203 2.39322 39.7045 2.588 39.818 2.76332C39.9306 2.93659 40.0672 3.09082 40.2231 3.22084C40.3763 3.34925 40.546 3.45364 40.7271 3.53086C40.9015 3.60435 41.0834 3.65564 41.2692 3.68356C41.6124 3.73187 41.961 3.71567 42.299 3.63579C42.4509 3.60078 42.6006 3.55557 42.7471 3.50036C42.8806 3.44889 43.0114 3.38975 43.1389 3.3232C43.349 3.21192 43.5483 3.07894 43.734 2.92625C43.856 2.82628 43.9714 2.71768 44.0796 2.60117C44.1201 2.56118 44.1452 2.52723 44.1646 2.50616L44.1938 2.47262L44.1602 2.50054C44.1375 2.5186 44.1059 2.54702 44.0622 2.5797C43.9401 2.67422 43.8125 2.76039 43.6801 2.8377C43.4832 2.95411 43.2765 3.05085 43.0627 3.12667C42.936 3.17081 42.8073 3.208 42.677 3.23806C42.5368 3.26926 42.3948 3.29147 42.252 3.30467C41.9501 3.33462 41.6456 3.31094 41.351 3.23459C41.2038 3.19445 41.0614 3.13674 40.9265 3.06257C40.8936 3.04279 40.8596 3.02518 40.8292 3.00368L40.7822 2.97271L40.7368 2.93917C40.7061 2.9181 40.6785 2.89147 40.6489 2.86825C40.6193 2.84503 40.593 2.81748 40.5679 2.79082C40.4634 2.68622 40.3735 2.56633 40.3009 2.43477C40.2329 2.31165 40.1841 2.17761 40.1566 2.03788C40.1321 1.91039 40.13 1.77919 40.1502 1.65085C40.1708 1.52915 40.2103 1.4119 40.2669 1.30383C40.3165 1.20712 40.381 1.11992 40.4577 1.04583C40.5215 0.984365 40.5947 0.934761 40.674 0.899167C40.6923 0.892286 40.7105 0.882868 40.7275 0.877277L40.7527 0.869089L40.7782 0.862632C40.8118 0.855092 40.8459 0.850232 40.8803 0.848039C40.9455 0.84471 41.0108 0.850321 41.0747 0.864784C41.1804 0.888731 41.2813 0.932432 41.3725 0.99381C41.4357 1.0364 41.4944 1.08578 41.5479 1.14126C41.6024 1.20698 41.6612 1.26865 41.7238 1.32577C41.7416 1.33939 41.7618 1.34908 41.7832 1.35433C41.8046 1.35957 41.8268 1.36022 41.8485 1.35627Z" fill="#FF952A" stroke="#761C14"></path><path d="M117.989 2.32296C115.358 2.47734 112.728 2.55773 110.097 2.61277C108.782 2.64717 107.467 2.65578 106.152 2.67513L102.206 2.69576L98.2607 2.67639L96.2878 2.6502L95.3012 2.63639L94.3151 2.6145C91.6846 2.55989 89.0542 2.47861 86.424 2.3238C89.0546 2.16857 91.6846 2.08771 94.3151 2.0331L95.3012 2.01116L96.2878 1.99741L98.2607 1.97116L102.206 1.95184L106.152 1.97247C107.467 1.99268 108.782 2.00043 110.097 2.03483C112.728 2.08816 115.359 2.16859 117.989 2.32296Z" fill="#FF952A" stroke="#761C14"></path></g><defs><clipPath id="clip0_1_1634"><rect width="118" height="8" fill="white"></rect></clipPath></defs></svg>